<svg width="32" height="28" viewBox="0 0 32 28" fill="none" xmlns="http://www.w3.org/2000/svg">
<g clip-path="url(#clip0_10_262)">
<path d="M27.7379 28H1.25243C0.837087 28 0.5 27.6628 0.5 27.2473V3.76343C0.5 3.34795 0.837087 3.01074 1.25243 3.01074H18.8592C19.2746 3.01074 19.6116 3.34795 19.6116 3.76343C19.6116 4.17891 19.2746 4.51612 18.8592 4.51612H2.00485V26.4946H26.9854V12.6452C26.9854 12.2297 27.3225 11.8925 27.7379 11.8925C28.1532 11.8925 28.4903 12.2297 28.4903 12.6452V27.2473C28.4903 27.6628 28.1532 28 27.7379 28Z" fill="#888888"/>
<path d="M26.233 10.5376C23.3286 10.5376 20.966 8.17419 20.966 5.26882C20.966 2.36344 23.3286 0 26.233 0C29.1374 0 31.5 2.36344 31.5 5.26882C31.5 8.17419 29.1374 10.5376 26.233 10.5376ZM26.233 1.50538C24.1593 1.50538 22.4709 3.19441 22.4709 5.26882C22.4709 7.34322 24.1593 9.03226 26.233 9.03226C28.3067 9.03226 29.9951 7.34322 29.9951 5.26882C29.9951 3.19441 28.3067 1.50538 26.233 1.50538Z" fill="#888888"/>
<path d="M21.7184 13.5484H7.27184C6.8565 13.5484 6.51941 13.2112 6.51941 12.7957C6.51941 12.3802 6.8565 12.043 7.27184 12.043H21.7184C22.1338 12.043 22.4709 12.3802 22.4709 12.7957C22.4709 13.2112 22.1338 13.5484 21.7184 13.5484Z" fill="#888888"/>
<path d="M21.7184 19.5699H7.27184C6.8565 19.5699 6.51941 19.2327 6.51941 18.8172C6.51941 18.4017 6.8565 18.0645 7.27184 18.0645H21.7184C22.1338 18.0645 22.4709 18.4017 22.4709 18.8172C22.4709 19.2327 22.1338 19.5699 21.7184 19.5699Z" fill="#888888"/>
</g>
<defs>
<clipPath id="clip0_10_262">
<rect width="31" height="28" fill="white" transform="translate(0.5)"/>
</clipPath>
</defs>
</svg>
