<svg width="30" height="30" viewBox="0 0 30 30" fill="none" xmlns="http://www.w3.org/2000/svg">
<path d="M26.5419 29.5002H3.44816C2.72148 29.5002 2.03147 29.1869 1.55813 28.6369C1.08145 28.0902 0.868114 27.3636 0.971449 26.6469C1.61146 22.1702 4.39151 18.2336 8.41158 16.1203C8.81825 15.9069 9.3216 16.0636 9.53827 16.4703C9.7516 16.8769 9.59492 17.3803 9.18824 17.5969C5.64152 19.4602 3.18814 22.9336 2.6248 26.8836C2.59146 27.1269 2.65814 27.3602 2.82148 27.5469C2.98148 27.7336 3.20816 27.8369 3.45483 27.8369H26.5485C26.7952 27.8369 27.0186 27.7336 27.1819 27.5469C27.3419 27.3602 27.4119 27.1269 27.3786 26.8836C26.8152 22.9336 24.3585 19.4602 20.8118 17.5969C20.4051 17.3836 20.2484 16.8803 20.4618 16.4703C20.6751 16.0636 21.1784 15.9069 21.5885 16.1203C25.6085 18.2336 28.3886 22.1669 29.0286 26.6469C29.1319 27.3636 28.9186 28.0902 28.4419 28.6369C27.9652 29.1869 27.2752 29.5002 26.5519 29.5002H26.5419Z" fill="#888888" stroke="white" stroke-width="0.2"/>
<path d="M14.995 20.1664C9.57157 20.1664 5.1615 15.7564 5.1615 10.3331C5.1615 4.90975 9.57157 0.499756 14.995 0.499756C20.4184 0.499756 24.8285 4.90975 24.8285 10.3331C24.8285 15.7564 20.4184 20.1664 14.995 20.1664ZM14.995 2.16642C10.4916 2.16642 6.82819 5.82975 6.82819 10.3331C6.82819 14.8364 10.4916 18.4997 14.995 18.4997C19.4984 18.4997 23.1618 14.8364 23.1618 10.3331C23.1618 5.82975 19.4984 2.16642 14.995 2.16642Z" fill="#888888" stroke="white" stroke-width="0.2"/>
</svg>
