<svg width="36" height="30" viewBox="0 0 36 30" fill="none" xmlns="http://www.w3.org/2000/svg">
<path d="M35.3673 10.7953C35.3641 8.03266 34.2652 5.38404 32.3117 3.43053C30.3582 1.47702 27.7096 0.378164 24.9469 0.375019H15.4407C13.7428 0.371812 12.0699 0.78503 10.5688 1.57847C9.06764 2.37191 7.78396 3.52137 6.83022 4.92614C4.71805 5.86243 2.97694 7.47413 1.88062 9.50785C0.784307 11.5416 0.394965 13.882 0.773807 16.1611C1.15265 18.4402 2.27819 20.5288 3.97347 22.0985C5.66876 23.6682 7.83764 24.6299 10.1391 24.8326V28.711C10.1391 28.8807 10.1864 29.0471 10.2756 29.1915C10.3649 29.3359 10.4926 29.4526 10.6444 29.5285C10.7962 29.6044 10.9662 29.6366 11.1353 29.6213C11.3043 29.6061 11.4658 29.5441 11.6016 29.4422L17.5165 25.0063C17.7551 24.8234 17.6993 24.8719 20.5594 24.8719C22.255 24.8711 23.9247 24.4566 25.4238 23.6643C26.9228 22.872 28.2059 21.7259 29.1617 20.3253C31.0107 19.5124 32.5826 18.1779 33.6848 16.4852C34.787 14.7925 35.3717 12.8152 35.3673 10.7953ZM20.5594 23.0438H17.9187C17.3783 23.045 16.8526 23.2203 16.4197 23.5438L11.9673 26.8828V23.9578C11.9673 23.7154 11.8709 23.4829 11.6995 23.3115C11.5281 23.1401 11.2956 23.0438 11.0532 23.0438C8.7744 23.0438 6.58894 22.1385 4.97759 20.5272C3.36625 18.9158 2.461 16.7304 2.461 14.4516C2.461 12.1728 3.36625 9.98734 4.97759 8.37599C6.58894 6.76464 8.7744 5.85939 11.0532 5.85939H20.5594C22.8382 5.85939 25.0237 6.76464 26.635 8.37599C28.2464 9.98734 29.1516 12.1728 29.1516 14.4516C29.1516 16.7304 28.2464 18.9158 26.635 20.5272C25.0237 22.1385 22.8382 23.0438 20.5594 23.0438ZM30.5894 17.2806C32.4706 10.6189 27.4286 4.03127 20.5594 4.03127C10.0989 4.03127 10.7552 4.0139 10.0806 4.07697C11.6021 2.86079 13.4929 2.1998 15.4407 2.20314H24.9469C26.6981 2.20186 28.4078 2.73566 29.8471 3.73304C31.2864 4.73042 32.3866 6.14377 33.0004 7.78381C33.6141 9.42385 33.7121 11.2123 33.2812 12.9095C32.8504 14.6068 31.9112 16.1319 30.5894 17.2806Z" fill="#888888" stroke="white" stroke-width="0.5"/>
</svg>
