<svg width="180" height="58" viewBox="0 0 180 58" fill="none" xmlns="http://www.w3.org/2000/svg">
<g clip-path="url(#clip0_7_91)">
<path d="M7.95404 34.1144L8.18399 34.347L17.9515 44.1145L18.2108 44.3712C22.5955 48.7153 29.7291 48.7153 34.1137 44.3712L34.3463 44.1412L44.3352 34.1523C48.7415 29.7474 48.7415 22.5785 44.3352 18.1723C39.9506 13.7876 32.7994 13.7713 28.3938 18.1364L28.1612 18.3663L26.1721 20.3555L26.1616 20.345L26.1525 20.3542L24.1921 18.3938L23.9321 18.1364C19.5265 13.7713 12.3753 13.7876 7.99063 18.1723C3.60596 22.557 3.58963 29.7082 7.9547 34.1137L7.95404 34.1144ZM10.8898 21.0715C13.7014 18.2598 18.2605 18.2592 21.0728 21.0715L26.1642 26.163L31.2557 31.2544C34.0673 34.0661 34.068 38.6251 31.2557 41.4374C28.4441 44.249 23.885 44.2497 21.0728 41.4374L15.9813 36.3459L10.8898 31.2544C8.07816 28.4428 8.07751 23.8837 10.8898 21.0715Z" fill="#597AFF"/>
<path d="M10.8891 31.2538L15.9806 36.3453L26.1629 26.163L21.0714 21.0715C18.2598 18.2598 13.7007 18.2592 10.8885 21.0715C8.07684 23.8831 8.07619 28.4422 10.8885 31.2544L10.8891 31.2538Z" fill="#F89900"/>
<path d="M31.2538 31.2538L26.1623 26.1623L15.98 36.3446L21.0714 41.4361C23.8831 44.2477 28.4421 44.2484 31.2544 41.4361C34.066 38.6245 34.0667 34.0654 31.2544 31.2531L31.2538 31.2538Z" fill="white"/>
</g>
<path d="M57.6366 20.6172H62.994L67.742 32.1953H67.9452L72.6932 20.6172H78.0506V39H73.8358V27.5742H73.6834L69.2147 38.8984H66.4725L62.0038 27.5234H61.8514V39H57.6366V20.6172ZM80.7136 39V20.6172H93.4343V24.1465H85.03V28.0312H92.7741V31.5605H85.03V35.4707H93.4597V39H80.7136ZM102.8 39H96.0719V20.6172H102.8C108.412 20.6172 111.865 24.0703 111.865 29.8086C111.865 35.5469 108.412 39 102.8 39ZM100.388 35.293H102.648C105.796 35.293 107.523 33.7949 107.523 29.8086C107.523 25.8223 105.796 24.2988 102.597 24.2988H100.388V35.293ZM125.065 25.2383C124.887 23.2324 123.161 21.9629 120.774 21.9629C118.235 21.9629 116.508 23.3848 116.508 25.3145C116.508 27.2188 118.387 28.1074 120.139 28.5898L122.043 29.123C124.354 29.7832 127.071 30.9766 127.071 34.0742C127.071 37.0449 124.684 39.3047 120.647 39.3047C116.864 39.3047 114.452 37.2988 114.249 34.3535H116.102C116.28 36.5117 118.209 37.6797 120.647 37.6797C123.364 37.6797 125.319 36.2324 125.319 34.0488C125.319 32.2207 123.745 31.3828 121.51 30.748L119.327 30.1133C116.432 29.25 114.731 27.7773 114.731 25.3906C114.731 22.3945 117.372 20.3633 120.825 20.3633C124.278 20.3633 126.715 22.4199 126.842 25.2383H125.065ZM144.867 20.6172V39H143.14L132.451 23.8418H132.298V39H130.495V20.6172H132.247L142.937 35.8008H143.089V20.6172H144.867ZM149.307 39H147.403L154.08 20.6172H156.035L162.713 39H160.809L158.879 33.541H151.237L149.307 39ZM151.821 31.9414H158.321L155.121 22.9531H154.994L151.821 31.9414ZM165.249 39V20.6172H171.267C175.228 20.6172 177.234 23.0801 177.234 26.3301C177.234 29.5547 175.228 32.043 171.292 32.043H167.052V39H165.249ZM167.052 30.418H171.216C174.085 30.418 175.456 28.6914 175.456 26.3301C175.456 23.9434 174.085 22.2422 171.191 22.2422H167.052V30.418Z" fill="#232323"/>
<defs>
<clipPath id="clip0_7_91">
<rect width="37" height="37" fill="white" transform="translate(26.1629) rotate(45)"/>
</clipPath>
</defs>
</svg>
