<svg width="44" height="34" viewBox="0 0 44 34" fill="none" xmlns="http://www.w3.org/2000/svg">
<g clip-path="url(#clip0_209_13)">
<path d="M7.09178 17.2738L12.1833 22.3653L22.3656 12.183L17.2741 7.09149C14.4625 4.27987 9.9034 4.27921 7.09113 7.09149C4.27951 9.90311 4.27886 14.4622 7.09113 17.2745L7.09178 17.2738Z" fill="#F89900"/>
<path d="M27.4561 17.2738L22.3646 12.1823L12.1823 22.3646L17.2737 27.4561C20.0854 30.2677 24.6444 30.2684 27.4567 27.4561C30.2683 24.6445 30.269 20.0854 27.4567 17.2731L27.4561 17.2738Z" fill="white"/>
<path d="M4.15634 20.1344L4.38629 20.367L14.1538 30.1345L14.4131 30.3912C18.7978 34.7354 25.9314 34.7354 30.316 30.3912L30.5486 30.1613L40.5375 20.1723C44.9438 15.7674 44.9438 8.59855 40.5375 4.19233C36.1529 -0.192335 29.0017 -0.208666 24.5961 4.1564L24.3635 4.38635L22.3744 6.37551L22.3639 6.36506L22.3548 6.37421L20.3944 4.41378L20.1344 4.1564C15.7288 -0.208666 8.57759 -0.192335 4.19293 4.19233C-0.191736 8.57699 -0.208068 15.7282 4.157 20.1338L4.15634 20.1344ZM7.09208 7.09148C9.9037 4.27986 14.4628 4.27921 17.2751 7.09148L22.3665 12.183L27.458 17.2745C30.2696 20.0861 30.2703 24.6452 27.458 27.4574C24.6464 30.269 20.0873 30.2697 17.2751 27.4574L12.1836 22.3659L7.09208 17.2745C4.28046 14.4628 4.27981 9.90376 7.09208 7.09148Z" fill="#597AFF"/>
</g>
<defs>
<clipPath id="clip0_209_13">
<rect width="44" height="34" fill="white"/>
</clipPath>
</defs>
</svg>
